<svg xmlns="http://www.w3.org/2000/svg" xmlns:xlink="http://www.w3.org/1999/xlink" width="500" zoomAndPan="magnify" viewBox="0 0 375 374.999991" height="500" preserveAspectRatio="xMidYMid meet" version="1.0"><defs><clipPath id="27648d05d5"><path d="M 3.289062 180 L 371.539062 180 L 371.539062 199 L 3.289062 199 Z M 3.289062 180 " clip-rule="nonzero"/></clipPath><clipPath id="7f7334acaf"><path d="M 74 62.21875 L 301 62.21875 L 301 187 L 74 187 Z M 74 62.21875 " clip-rule="nonzero"/></clipPath><clipPath id="c03decf28d"><path d="M 98 243 L 277 243 L 277 287.96875 L 98 287.96875 Z M 98 243 " clip-rule="nonzero"/></clipPath><clipPath id="f80ab31bc0"><path d="M 196 102 L 333.820312 102 L 333.820312 164 L 196 164 Z M 196 102 " clip-rule="nonzero"/></clipPath><clipPath id="a2f95a790b"><path d="M 186 145 L 246 145 L 246 175.328125 L 186 175.328125 Z M 186 145 " clip-rule="nonzero"/></clipPath><clipPath id="7dd18e0691"><path d="M 33.070312 102 L 171 102 L 171 164 L 33.070312 164 Z M 33.070312 102 " clip-rule="nonzero"/></clipPath><clipPath id="0c361e1804"><path d="M 122 145 L 181 145 L 181 175.328125 L 122 175.328125 Z M 122 145 " clip-rule="nonzero"/></clipPath></defs><path fill="#ffffff" d="M 76.96875 244.65625 C 76.96875 244.65625 77.855469 244.523438 79.507812 244.277344 C 80.347656 244.191406 81.339844 243.945312 82.511719 243.730469 C 83.09375 243.632812 83.714844 243.4375 84.375 243.277344 C 84.703125 243.195312 85.042969 243.109375 85.394531 243.023438 C 85.738281 242.925781 86.089844 242.808594 86.449219 242.695312 C 86.8125 242.582031 87.179688 242.464844 87.558594 242.34375 C 87.929688 242.207031 88.3125 242.0625 88.703125 241.914062 C 89.484375 241.644531 90.28125 241.28125 91.109375 240.921875 C 92.765625 240.160156 94.535156 239.265625 96.53125 238.292969 C 98.527344 237.316406 100.832031 236.410156 103.332031 235.703125 C 104.582031 235.3125 105.882812 235.078125 107.222656 234.800781 C 107.890625 234.683594 108.566406 234.601562 109.25 234.496094 C 109.59375 234.445312 109.9375 234.398438 110.285156 234.347656 C 110.628906 234.304688 110.976562 234.28125 111.328125 234.246094 C 112.027344 234.1875 112.730469 234.128906 113.445312 234.066406 L 113.710938 234.042969 L 113.78125 234.039062 L 113.933594 234.035156 L 114.0625 234.03125 L 114.574219 234.015625 C 114.914062 234.003906 115.261719 233.992188 115.605469 233.980469 C 115.957031 233.96875 116.304688 233.957031 116.652344 233.945312 L 117.183594 233.929688 L 117.761719 233.945312 C 118.539062 233.964844 119.328125 233.988281 120.121094 234.007812 C 123.226562 234.175781 126.519531 234.730469 129.722656 235.667969 C 130.519531 235.898438 131.289062 236.152344 132.074219 236.402344 C 132.8125 236.660156 133.558594 236.917969 134.304688 237.179688 C 134.667969 237.304688 135.027344 237.429688 135.394531 237.554688 C 135.742188 237.667969 136.09375 237.78125 136.449219 237.894531 C 137.15625 238.132812 137.839844 238.3125 138.53125 238.503906 C 141.277344 239.226562 144.082031 239.625 147.125 239.6875 C 147.496094 239.714844 147.875 239.71875 148.265625 239.710938 L 149.421875 239.695312 L 150.578125 239.6875 C 150.546875 239.6875 150.757812 239.6875 150.523438 239.6875 L 150.601562 239.683594 L 151.074219 239.660156 L 151.707031 239.628906 L 152.976562 239.570312 C 153.398438 239.546875 153.839844 239.53125 154.171875 239.484375 C 154.894531 239.394531 155.613281 239.332031 156.34375 239.238281 C 157.082031 239.105469 157.832031 238.996094 158.566406 238.855469 C 159.289062 238.671875 160.023438 238.539062 160.734375 238.328125 C 161.449219 238.105469 162.167969 237.933594 162.890625 237.660156 C 163.253906 237.535156 163.609375 237.425781 163.980469 237.28125 L 165.097656 236.851562 C 166.625 236.253906 168.21875 235.550781 170.039062 234.867188 C 170.910156 234.515625 171.882812 234.214844 172.8125 233.894531 C 173.78125 233.621094 174.75 233.332031 175.738281 233.113281 C 177.714844 232.667969 179.707031 232.347656 181.667969 232.164062 L 183.140625 232.039062 C 183.632812 231.992188 184.121094 231.957031 184.601562 231.953125 L 187.636719 231.871094 L 190.300781 231.945312 C 190.523438 231.953125 190.726562 231.953125 190.976562 231.96875 L 191.746094 232.03125 L 193.28125 232.160156 C 194.320312 232.222656 195.289062 232.40625 196.285156 232.539062 L 197.023438 232.648438 L 197.769531 232.800781 L 199.253906 233.113281 C 203.242188 233.96875 206.917969 235.675781 209.894531 236.84375 L 211.011719 237.277344 C 211.382812 237.417969 211.738281 237.527344 212.101562 237.65625 C 212.824219 237.925781 213.542969 238.101562 214.253906 238.316406 C 214.96875 238.53125 215.703125 238.660156 216.421875 238.84375 C 217.160156 238.984375 217.90625 239.097656 218.648438 239.230469 C 219.402344 239.324219 220.167969 239.390625 220.925781 239.476562 C 221.683594 239.566406 222.476562 239.566406 223.246094 239.617188 L 223.828125 239.648438 L 224.121094 239.664062 L 224.261719 239.671875 C 224.230469 239.671875 224.441406 239.671875 224.207031 239.675781 L 224.285156 239.675781 L 226.800781 239.691406 L 227.425781 239.695312 L 227.964844 239.671875 C 228.679688 239.628906 229.382812 239.617188 230.101562 239.5625 C 230.828125 239.484375 231.550781 239.40625 232.273438 239.328125 C 232.972656 239.207031 233.683594 239.105469 234.378906 238.964844 C 235.070312 238.800781 235.761719 238.6875 236.453125 238.488281 C 237.144531 238.296875 237.828125 238.117188 238.535156 237.878906 C 238.886719 237.765625 239.238281 237.652344 239.59375 237.539062 C 239.953125 237.410156 240.316406 237.289062 240.675781 237.164062 C 241.425781 236.902344 242.171875 236.644531 242.910156 236.386719 C 243.695312 236.132812 244.460938 235.878906 245.261719 235.648438 C 248.464844 234.710938 251.769531 234.164062 254.863281 233.992188 C 256.40625 233.949219 257.921875 233.886719 259.378906 233.964844 C 259.742188 233.976562 260.105469 233.988281 260.46875 234 L 261.007812 234.015625 L 261.144531 234.019531 L 261.296875 234.027344 L 261.359375 234.03125 L 261.617188 234.050781 C 262.292969 234.113281 262.960938 234.171875 263.628906 234.230469 C 263.960938 234.265625 264.28125 234.285156 264.628906 234.332031 C 264.984375 234.378906 265.339844 234.429688 265.691406 234.476562 C 266.394531 234.582031 267.09375 234.671875 267.769531 234.789062 C 269.109375 235.066406 270.410156 235.300781 271.660156 235.6875 C 274.160156 236.398438 276.46875 237.304688 278.460938 238.28125 C 280.460938 239.257812 282.226562 240.152344 283.882812 240.914062 C 284.710938 241.273438 285.507812 241.636719 286.289062 241.910156 C 286.679688 242.054688 287.058594 242.199219 287.429688 242.339844 C 287.808594 242.457031 288.179688 242.574219 288.539062 242.691406 C 288.902344 242.800781 289.253906 242.917969 289.597656 243.019531 C 289.949219 243.105469 290.289062 243.191406 290.617188 243.273438 C 291.277344 243.429688 291.894531 243.628906 292.480469 243.722656 C 293.65625 243.941406 294.660156 244.1875 295.484375 244.277344 C 297.140625 244.523438 298.019531 244.65625 298.019531 244.65625 C 298.019531 244.65625 297.800781 244.679688 297.367188 244.722656 C 296.9375 244.761719 296.296875 244.839844 295.457031 244.90625 C 293.785156 245.015625 291.296875 245.175781 288.101562 244.847656 C 287.703125 244.804688 287.289062 244.761719 286.871094 244.71875 C 286.449219 244.660156 286.023438 244.578125 285.582031 244.503906 C 284.699219 244.367188 283.796875 244.144531 282.847656 243.929688 C 280.960938 243.46875 278.984375 242.828125 276.949219 242.242188 C 274.917969 241.652344 272.824219 241.152344 270.574219 240.882812 C 269.457031 240.71875 268.289062 240.664062 267.105469 240.578125 C 266.519531 240.554688 265.929688 240.566406 265.335938 240.554688 C 265.039062 240.554688 264.742188 240.550781 264.441406 240.546875 C 264.132812 240.546875 263.789062 240.570312 263.457031 240.582031 C 262.792969 240.609375 262.121094 240.632812 261.441406 240.660156 L 261.183594 240.667969 L 261.121094 240.671875 C 261.019531 240.671875 261.183594 240.671875 261.148438 240.675781 L 261.027344 240.6875 L 260.542969 240.730469 C 260.21875 240.757812 259.894531 240.785156 259.566406 240.8125 C 258.25 240.898438 256.960938 241.113281 255.644531 241.296875 C 253.03125 241.757812 250.496094 242.417969 247.929688 243.464844 C 245.382812 244.476562 242.515625 245.9375 239.144531 247.132812 C 238.316406 247.441406 237.433594 247.675781 236.570312 247.953125 C 235.695312 248.1875 234.800781 248.382812 233.90625 248.59375 C 233.011719 248.761719 232.109375 248.910156 231.203125 249.0625 C 230.28125 249.191406 229.332031 249.277344 228.390625 249.382812 L 227.683594 249.453125 L 227.058594 249.492188 L 225.804688 249.5625 L 224.546875 249.632812 L 224.46875 249.636719 L 223.742188 249.636719 L 223.054688 249.632812 C 222.140625 249.621094 221.234375 249.652344 220.296875 249.59375 C 219.359375 249.535156 218.425781 249.492188 217.476562 249.414062 C 216.523438 249.296875 215.566406 249.195312 214.605469 249.054688 C 213.640625 248.871094 212.667969 248.722656 211.710938 248.492188 C 210.757812 248.25 209.785156 248.019531 208.867188 247.710938 C 208.402344 247.566406 207.921875 247.425781 207.476562 247.269531 L 206.140625 246.796875 C 202.597656 245.484375 199.789062 244.335938 196.84375 243.710938 L 195.734375 243.488281 L 195.175781 243.378906 L 194.601562 243.304688 C 193.84375 243.210938 193.0625 243.0625 192.332031 243.035156 L 191.21875 242.945312 L 190.664062 242.902344 C 190.46875 242.890625 190.226562 242.890625 190.011719 242.886719 L 187.351562 242.824219 C 187.613281 242.832031 187.382812 242.828125 187.417969 242.832031 L 187.191406 242.832031 L 186.890625 242.839844 L 186.28125 242.855469 L 185.070312 242.878906 C 184.664062 242.875 184.269531 242.902344 183.875 242.9375 L 182.695312 243.027344 C 181.128906 243.15625 179.617188 243.390625 178.144531 243.707031 C 177.402344 243.859375 176.679688 244.078125 175.945312 244.265625 C 175.207031 244.507812 174.488281 244.695312 173.71875 244.980469 C 172.226562 245.488281 170.589844 246.152344 168.847656 246.78125 L 167.511719 247.257812 C 167.066406 247.414062 166.585938 247.554688 166.121094 247.699219 C 165.203125 248.007812 164.230469 248.242188 163.277344 248.476562 C 162.320312 248.710938 161.34375 248.855469 160.382812 249.039062 C 159.425781 249.179688 158.464844 249.28125 157.511719 249.398438 C 156.542969 249.484375 155.554688 249.53125 154.582031 249.585938 C 154.070312 249.625 153.664062 249.617188 153.238281 249.621094 L 150.570312 249.621094 L 149.207031 249.546875 C 148.757812 249.523438 148.304688 249.5 147.855469 249.472656 C 147.40625 249.453125 146.957031 249.421875 146.5 249.363281 C 142.902344 249.046875 139.207031 248.339844 135.851562 247.117188 C 135.019531 246.8125 134.183594 246.515625 133.414062 246.183594 C 133.027344 246.019531 132.636719 245.859375 132.253906 245.699219 C 131.882812 245.539062 131.515625 245.375 131.148438 245.214844 C 130.441406 244.902344 129.738281 244.59375 129.039062 244.285156 C 128.375 244.007812 127.710938 243.699219 127.0625 243.449219 C 125.773438 242.9375 124.511719 242.488281 123.222656 242.144531 C 121.953125 241.773438 120.632812 241.539062 119.355469 241.285156 C 118.71875 241.191406 118.085938 241.097656 117.460938 241.003906 L 116.992188 240.933594 L 116.46875 240.886719 C 116.121094 240.859375 115.773438 240.828125 115.425781 240.800781 C 115.082031 240.773438 114.738281 240.742188 114.394531 240.714844 L 113.886719 240.671875 L 113.757812 240.660156 C 113.65625 240.65625 113.820312 240.65625 113.78125 240.65625 L 113.722656 240.65625 L 113.480469 240.648438 C 112.835938 240.621094 112.199219 240.59375 111.570312 240.566406 C 106.492188 240.347656 102.078125 241.027344 98.035156 242.230469 C 96 242.816406 94.023438 243.460938 92.140625 243.917969 C 91.191406 244.136719 90.292969 244.359375 89.40625 244.496094 C 88.964844 244.570312 88.535156 244.652344 88.117188 244.710938 C 87.699219 244.753906 87.289062 244.800781 86.886719 244.839844 C 83.699219 245.171875 81.1875 245.011719 79.527344 244.902344 C 77.859375 244.742188 76.96875 244.65625 76.96875 244.65625 " fill-opacity="1" fill-rule="nonzero"/><g clip-path="url(#27648d05d5)"><path fill="#ffffff" d="M 371.703125 192.851562 C 371.703125 192.851562 371.332031 192.871094 370.613281 192.90625 C 370.257812 192.925781 369.8125 192.945312 369.28125 192.976562 C 369.015625 192.988281 368.730469 193 368.425781 193.015625 C 368.117188 193.011719 367.789062 193.007812 367.441406 193 C 366.742188 192.980469 365.949219 193.007812 365.09375 192.941406 C 364.660156 192.910156 364.210938 192.875 363.742188 192.84375 C 363.269531 192.8125 362.777344 192.773438 362.273438 192.691406 C 360.234375 192.476562 357.90625 191.949219 355.382812 191.183594 C 352.851562 190.429688 350.191406 189.398438 347.273438 188.722656 C 344.355469 188.046875 341.15625 187.703125 337.679688 187.722656 C 336.808594 187.746094 335.925781 187.769531 335.03125 187.792969 C 334.121094 187.855469 333.203125 187.917969 332.265625 187.980469 C 331.777344 188.003906 331.332031 188.066406 330.886719 188.128906 C 330.441406 188.1875 329.992188 188.246094 329.539062 188.304688 C 329.085938 188.351562 328.625 188.449219 328.167969 188.539062 C 327.707031 188.621094 327.242188 188.710938 326.777344 188.800781 C 324.941406 189.25 323.105469 189.734375 321.253906 190.484375 C 319.394531 191.207031 317.480469 192.109375 315.347656 193.011719 C 314.804688 193.230469 314.273438 193.464844 313.710938 193.675781 C 313.144531 193.878906 312.574219 194.085938 312.003906 194.296875 C 310.828125 194.65625 309.640625 195.039062 308.410156 195.304688 C 307.1875 195.632812 305.941406 195.796875 304.683594 196.027344 C 304.058594 196.117188 303.433594 196.175781 302.800781 196.253906 C 302.167969 196.316406 301.53125 196.417969 300.902344 196.4375 C 300.269531 196.472656 299.632812 196.511719 298.996094 196.546875 L 298.035156 196.601562 L 297.023438 196.605469 C 295.804688 196.609375 294.632812 196.644531 293.203125 196.542969 C 292.519531 196.5 291.816406 196.488281 291.140625 196.410156 C 290.464844 196.332031 289.785156 196.253906 289.105469 196.179688 C 288.421875 196.109375 287.738281 195.953125 287.046875 195.84375 C 286.707031 195.777344 286.355469 195.726562 286.015625 195.648438 L 284.992188 195.40625 C 282.242188 194.765625 279.582031 193.769531 277.203125 192.894531 C 274.804688 192.015625 272.613281 191.332031 270.296875 190.914062 C 269.148438 190.679688 267.953125 190.578125 266.761719 190.433594 C 265.53125 190.390625 264.328125 190.253906 263.058594 190.28125 C 262.46875 190.277344 261.878906 190.277344 261.289062 190.269531 C 260.609375 190.300781 259.921875 190.332031 259.234375 190.363281 L 258.203125 190.410156 C 257.867188 190.425781 257.601562 190.46875 257.300781 190.5 C 256.710938 190.5625 256.117188 190.625 255.523438 190.6875 C 253.070312 191.023438 250.757812 191.589844 248.40625 192.421875 C 247.824219 192.605469 247.203125 192.875 246.601562 193.097656 C 245.996094 193.332031 245.339844 193.609375 244.707031 193.863281 C 244.03125 194.140625 243.351562 194.414062 242.675781 194.691406 C 241.949219 194.960938 241.253906 195.253906 240.496094 195.507812 C 237.503906 196.578125 234.238281 197.332031 231.046875 197.738281 C 229.464844 197.882812 227.855469 198.058594 226.296875 198.078125 L 225.117188 198.117188 L 224.527344 198.132812 L 224.378906 198.140625 C 224.355469 198.140625 224.019531 198.136719 224.097656 198.136719 L 223.828125 198.132812 L 221.648438 198.09375 C 220.96875 198.101562 220.058594 198.019531 219.234375 197.964844 C 218.394531 197.902344 217.546875 197.851562 216.738281 197.726562 C 215.921875 197.605469 215.109375 197.535156 214.285156 197.367188 C 213.46875 197.199219 212.640625 197.0625 211.828125 196.859375 C 211.023438 196.640625 210.195312 196.453125 209.410156 196.207031 C 208.632812 195.953125 207.808594 195.71875 207.074219 195.441406 C 206.320312 195.167969 205.566406 194.890625 204.878906 194.617188 L 202.824219 193.820312 C 200.1875 192.789062 197.882812 192.046875 195.363281 191.621094 C 192.863281 191.191406 190.203125 191.054688 187.496094 191.023438 L 185.421875 191.074219 L 184.328125 191.105469 L 183.398438 191.183594 L 182.472656 191.253906 C 182.164062 191.269531 181.851562 191.300781 181.53125 191.355469 C 180.898438 191.449219 180.253906 191.519531 179.625 191.625 C 177.109375 192.050781 174.804688 192.792969 172.164062 193.824219 L 170.117188 194.621094 C 169.425781 194.894531 168.667969 195.171875 167.917969 195.445312 C 167.1875 195.726562 166.359375 195.960938 165.582031 196.214844 C 164.796875 196.464844 163.96875 196.652344 163.160156 196.867188 C 159.886719 197.65625 156.59375 197.980469 153.421875 198.101562 L 151.054688 198.140625 L 150.757812 198.148438 L 150.476562 198.148438 L 150.339844 198.140625 L 149.792969 198.125 L 148.707031 198.085938 C 147.359375 198.078125 145.570312 197.894531 143.941406 197.75 C 140.75 197.347656 137.480469 196.585938 134.488281 195.515625 C 133.730469 195.261719 133.039062 194.972656 132.3125 194.699219 C 131.632812 194.425781 130.953125 194.148438 130.277344 193.878906 C 129.648438 193.621094 128.992188 193.34375 128.382812 193.109375 C 127.785156 192.882812 127.164062 192.617188 126.582031 192.433594 C 124.226562 191.605469 121.917969 191.039062 119.464844 190.699219 C 118.84375 190.636719 118.222656 190.570312 117.601562 190.507812 C 117.289062 190.476562 116.988281 190.433594 116.667969 190.417969 L 115.71875 190.375 C 115.085938 190.347656 114.453125 190.316406 113.824219 190.285156 C 113.183594 190.289062 112.539062 190.292969 111.902344 190.296875 L 110.882812 190.300781 C 110.535156 190.300781 110.28125 190.335938 109.976562 190.347656 C 109.394531 190.386719 108.8125 190.417969 108.230469 190.453125 C 107.042969 190.59375 105.839844 190.695312 104.699219 190.929688 C 102.382812 191.347656 100.1875 192.03125 97.792969 192.90625 C 95.414062 193.777344 92.757812 194.78125 90.003906 195.417969 C 87.261719 196.070312 84.492188 196.457031 81.84375 196.554688 C 80.507812 196.652344 79.210938 196.625 77.917969 196.621094 L 76.855469 196.617188 L 75.953125 196.5625 C 75.351562 196.527344 74.75 196.492188 74.152344 196.457031 C 73.585938 196.4375 72.878906 196.339844 72.242188 196.273438 C 71.589844 196.195312 70.9375 196.136719 70.300781 196.042969 C 69.042969 195.8125 67.800781 195.644531 66.578125 195.320312 C 65.347656 195.054688 64.160156 194.671875 62.980469 194.308594 C 62.410156 194.101562 61.839844 193.894531 61.273438 193.691406 C 60.707031 193.480469 60.179688 193.246094 59.636719 193.027344 C 57.503906 192.125 55.585938 191.222656 53.730469 190.5 C 51.882812 189.75 50.046875 189.265625 48.210938 188.816406 C 47.742188 188.722656 47.28125 188.636719 46.820312 188.550781 C 46.363281 188.460938 45.90625 188.363281 45.4375 188.316406 C 44.972656 188.257812 44.515625 188.195312 44.054688 188.140625 C 43.597656 188.074219 43.144531 188.015625 42.683594 187.992188 C 41.78125 187.925781 40.890625 187.863281 40.015625 187.800781 C 39.085938 187.777344 38.167969 187.757812 37.265625 187.734375 C 33.859375 187.714844 30.628906 188.058594 27.71875 188.730469 C 24.804688 189.402344 22.140625 190.433594 19.609375 191.1875 C 17.085938 191.953125 14.757812 192.480469 12.71875 192.695312 C 12.214844 192.777344 11.722656 192.816406 11.25 192.847656 C 10.78125 192.878906 10.328125 192.914062 9.898438 192.945312 C 9.039062 193.007812 8.253906 192.984375 7.554688 193.003906 C 7.207031 193.007812 6.878906 193.011719 6.570312 193.015625 C 6.265625 193 5.976562 192.988281 5.710938 192.976562 C 5.179688 192.949219 4.734375 192.925781 4.375 192.90625 C 3.660156 192.871094 3.289062 192.851562 3.289062 192.851562 C 3.289062 192.851562 3.65625 192.816406 4.371094 192.742188 C 4.730469 192.707031 5.171875 192.660156 5.695312 192.605469 C 5.957031 192.582031 6.242188 192.550781 6.546875 192.519531 C 6.847656 192.472656 7.167969 192.425781 7.507812 192.375 C 10.25 192.015625 14.210938 191.203125 18.84375 189.121094 C 21.171875 188.101562 23.742188 186.761719 26.816406 185.671875 C 29.890625 184.578125 33.367188 183.863281 37.15625 183.5 C 38.054688 183.433594 38.96875 183.363281 39.894531 183.292969 L 39.984375 183.289062 C 40.039062 183.285156 39.980469 183.285156 40.128906 183.28125 L 40.3125 183.277344 L 40.675781 183.269531 C 40.917969 183.265625 41.160156 183.261719 41.40625 183.257812 C 41.898438 183.246094 42.390625 183.238281 42.886719 183.226562 C 43.382812 183.210938 43.890625 183.230469 44.398438 183.25 C 44.910156 183.269531 45.421875 183.289062 45.9375 183.308594 C 46.453125 183.316406 46.980469 183.375 47.507812 183.425781 C 48.035156 183.476562 48.566406 183.53125 49.101562 183.585938 C 51.234375 183.886719 53.453125 184.308594 55.609375 184.980469 C 57.769531 185.628906 59.859375 186.417969 61.871094 187.078125 C 62.371094 187.234375 62.878906 187.414062 63.378906 187.550781 C 63.878906 187.695312 64.378906 187.835938 64.882812 187.976562 C 65.890625 188.207031 66.902344 188.460938 67.941406 188.605469 C 68.96875 188.808594 70.046875 188.867188 71.109375 188.992188 C 71.640625 189.03125 72.167969 189.039062 72.699219 189.066406 C 73.242188 189.082031 73.71875 189.132812 74.347656 189.113281 C 74.945312 189.105469 75.546875 189.097656 76.148438 189.09375 L 77.054688 189.089844 C 76.894531 189.085938 77.070312 189.082031 77.0625 189.082031 L 77.171875 189.074219 L 77.808594 189.035156 C 78.949219 188.96875 80.105469 188.929688 81.222656 188.773438 C 83.503906 188.554688 85.699219 188.097656 87.867188 187.449219 C 90.035156 186.792969 92.175781 185.882812 94.636719 184.839844 C 97.089844 183.796875 99.902344 182.746094 102.8125 182.078125 C 104.269531 181.707031 105.738281 181.496094 107.21875 181.257812 C 107.980469 181.183594 108.742188 181.109375 109.511719 181.03125 C 109.882812 181 110.304688 180.949219 110.636719 180.9375 L 111.65625 180.890625 C 112.375 180.863281 113.101562 180.832031 113.828125 180.800781 C 114.5625 180.804688 115.300781 180.8125 116.039062 180.816406 L 117.152344 180.828125 C 117.523438 180.832031 117.90625 180.867188 118.285156 180.886719 C 119.039062 180.9375 119.796875 180.988281 120.558594 181.039062 C 123.609375 181.339844 126.789062 181.957031 129.769531 182.933594 C 130.535156 183.160156 131.21875 183.433594 131.949219 183.683594 C 132.667969 183.9375 133.320312 184.195312 134.011719 184.453125 C 134.65625 184.695312 135.300781 184.933594 135.945312 185.175781 C 136.558594 185.386719 137.1875 185.628906 137.785156 185.8125 C 140.191406 186.589844 142.5625 187.0625 145.101562 187.324219 C 146.347656 187.394531 147.4375 187.535156 148.984375 187.527344 L 150.074219 187.542969 L 150.617188 187.554688 L 150.753906 187.558594 C 150.832031 187.558594 150.578125 187.550781 150.742188 187.550781 L 150.992188 187.542969 L 152.984375 187.472656 C 155.621094 187.328125 158.167969 187.023438 160.582031 186.402344 C 163.007812 185.785156 165.367188 184.828125 168.226562 183.691406 C 168.914062 183.414062 169.695312 183.132812 170.4375 182.855469 C 171.191406 182.574219 172.003906 182.328125 172.785156 182.070312 C 173.59375 181.832031 174.414062 181.621094 175.226562 181.398438 L 177.707031 180.878906 C 178.535156 180.734375 179.363281 180.628906 180.1875 180.507812 C 180.597656 180.441406 181.019531 180.398438 181.449219 180.367188 L 182.730469 180.261719 L 184.011719 180.160156 L 185.136719 180.121094 L 187.496094 180.0625 C 190.695312 180.113281 193.960938 180.289062 197.28125 180.882812 L 199.761719 181.402344 C 200.578125 181.621094 201.398438 181.835938 202.203125 182.070312 C 202.984375 182.332031 203.800781 182.578125 204.550781 182.855469 C 205.292969 183.132812 206.078125 183.414062 206.761719 183.695312 C 209.621094 184.828125 211.980469 185.796875 214.402344 186.410156 C 215.007812 186.570312 215.628906 186.675781 216.242188 186.820312 C 216.851562 186.960938 217.5 187.019531 218.121094 187.125 C 218.757812 187.242188 219.367188 187.277344 219.980469 187.335938 C 220.609375 187.386719 221.148438 187.472656 221.925781 187.480469 L 224.105469 187.554688 L 224.378906 187.5625 C 224.546875 187.566406 224.300781 187.566406 224.371094 187.5625 L 224.496094 187.558594 L 224.992188 187.550781 L 225.988281 187.535156 C 227.328125 187.550781 228.597656 187.402344 229.890625 187.335938 C 232.429688 187.078125 234.800781 186.601562 237.207031 185.820312 C 237.808594 185.640625 238.4375 185.394531 239.050781 185.1875 C 239.695312 184.945312 240.339844 184.703125 240.984375 184.460938 C 241.675781 184.207031 242.324219 183.949219 243.046875 183.695312 C 243.773438 183.445312 244.460938 183.171875 245.222656 182.945312 C 248.203125 181.972656 251.386719 181.355469 254.4375 181.054688 C 255.21875 180.992188 256.011719 180.945312 256.796875 180.898438 C 257.179688 180.875 257.601562 180.839844 257.953125 180.835938 L 258.984375 180.828125 C 259.671875 180.824219 260.359375 180.820312 261.042969 180.816406 C 261.332031 180.8125 261.203125 180.820312 261.300781 180.820312 L 261.4375 180.828125 L 261.71875 180.835938 L 262.269531 180.859375 L 263.367188 180.90625 C 264.820312 180.9375 266.3125 181.136719 267.773438 181.273438 C 269.25 181.511719 270.71875 181.722656 272.175781 182.09375 C 275.085938 182.761719 277.894531 183.8125 280.347656 184.851562 C 282.8125 185.894531 284.949219 186.8125 287.117188 187.464844 L 287.933594 187.714844 C 288.203125 187.792969 288.476562 187.847656 288.75 187.914062 C 289.300781 188.035156 289.835938 188.203125 290.398438 188.289062 C 290.957031 188.386719 291.511719 188.484375 292.070312 188.582031 C 292.621094 188.675781 293.164062 188.710938 293.707031 188.785156 L 294.523438 188.878906 C 294.664062 188.894531 294.789062 188.917969 294.9375 188.925781 L 295.394531 188.953125 C 296.007812 188.988281 296.617188 189.019531 297.226562 189.054688 L 297.90625 189.089844 L 298.019531 189.097656 C 298.011719 189.097656 298.195312 189.105469 298.03125 189.101562 L 298.886719 189.109375 C 299.453125 189.117188 300.015625 189.121094 300.578125 189.128906 C 301.144531 189.152344 301.6875 189.101562 302.238281 189.085938 C 302.789062 189.058594 303.34375 189.046875 303.878906 189.007812 C 304.949219 188.882812 306.027344 188.824219 307.050781 188.621094 C 308.09375 188.476562 309.101562 188.21875 310.109375 187.992188 C 310.617188 187.847656 311.117188 187.707031 311.617188 187.566406 C 312.113281 187.425781 312.625 187.25 313.121094 187.09375 C 315.136719 186.429688 317.226562 185.640625 319.386719 184.996094 C 321.539062 184.320312 323.757812 183.898438 325.894531 183.597656 C 326.429688 183.546875 326.957031 183.492188 327.484375 183.4375 C 328.011719 183.386719 328.53125 183.328125 329.066406 183.320312 C 329.59375 183.300781 330.117188 183.28125 330.636719 183.257812 C 331.160156 183.238281 331.675781 183.21875 332.144531 183.238281 C 333.125 183.261719 334.089844 183.28125 335.042969 183.304688 C 336 183.375 336.945312 183.445312 337.878906 183.515625 C 341.601562 183.871094 345.105469 184.585938 348.171875 185.679688 C 351.246094 186.769531 353.816406 188.105469 356.144531 189.128906 C 360.773438 191.207031 364.746094 192.019531 367.472656 192.378906 C 367.816406 192.425781 368.136719 192.476562 368.4375 192.519531 C 368.742188 192.550781 369.027344 192.582031 369.292969 192.605469 C 369.816406 192.660156 370.261719 192.707031 370.621094 192.742188 C 371.335938 192.816406 371.703125 192.851562 371.703125 192.851562 " fill-opacity="1" fill-rule="nonzero"/></g><path fill="#ffffff" d="M 334.859375 218.589844 C 334.859375 218.589844 333.6875 218.457031 331.488281 218.203125 C 329.300781 218 326.0625 217.691406 322.054688 217.894531 C 320.050781 218.027344 317.886719 218.335938 315.496094 218.851562 C 313.109375 219.363281 310.4375 219.96875 307.53125 220.433594 C 304.621094 220.910156 301.496094 221.21875 298.203125 221.421875 C 297.304688 221.460938 296.605469 221.511719 295.679688 221.511719 C 294.789062 221.527344 293.910156 221.507812 293.019531 221.488281 C 291.230469 221.421875 289.375 221.265625 287.484375 220.964844 C 285.597656 220.667969 283.667969 220.1875 281.796875 219.609375 C 279.921875 219.03125 278.121094 218.363281 276.398438 217.792969 C 274.667969 217.222656 273 216.738281 271.273438 216.398438 C 269.550781 216.0625 267.765625 215.863281 265.917969 215.769531 C 264.070312 215.683594 262.167969 215.691406 260.203125 215.785156 C 259.949219 215.796875 259.667969 215.804688 259.441406 215.824219 L 258.746094 215.875 C 258.285156 215.902344 257.8125 215.949219 257.332031 216 C 256.375 216.09375 255.429688 216.230469 254.496094 216.386719 C 252.628906 216.71875 250.828125 217.171875 249.015625 217.800781 C 247.203125 218.417969 245.347656 219.246094 243.21875 220.132812 C 241.105469 221.015625 238.722656 221.914062 236.253906 222.519531 C 233.78125 223.132812 231.261719 223.519531 228.78125 223.71875 C 228.15625 223.777344 227.539062 223.820312 226.921875 223.847656 C 226.300781 223.886719 225.683594 223.90625 225.070312 223.921875 L 224.609375 223.933594 L 224.378906 223.941406 L 224.09375 223.941406 L 223.238281 223.945312 C 222.695312 223.953125 222.023438 223.9375 221.375 223.921875 C 218.832031 223.851562 216.285156 223.59375 213.679688 223.105469 C 211.089844 222.621094 208.480469 221.835938 206.140625 220.960938 C 203.78125 220.09375 201.734375 219.238281 199.792969 218.613281 C 197.851562 217.988281 195.933594 217.554688 193.898438 217.292969 C 191.867188 217.035156 189.75 216.921875 187.585938 216.925781 L 185.898438 216.941406 L 184.375 217.003906 C 183.320312 217.066406 182.273438 217.140625 181.265625 217.277344 C 179.21875 217.527344 177.296875 217.949219 175.355469 218.566406 C 173.417969 219.175781 171.394531 220.03125 169.050781 220.898438 C 166.722656 221.777344 164.121094 222.566406 161.53125 223.074219 C 156.320312 224.078125 151.289062 224.113281 146.425781 223.75 C 143.941406 223.550781 141.425781 223.1875 138.949219 222.578125 C 136.476562 221.996094 134.082031 221.109375 131.953125 220.226562 C 129.8125 219.332031 127.949219 218.5 126.136719 217.871094 C 124.324219 217.230469 122.527344 216.777344 120.664062 216.429688 C 118.804688 216.097656 116.886719 215.910156 114.957031 215.808594 L 114.230469 215.777344 L 113.867188 215.757812 C 113.773438 215.757812 113.898438 215.753906 113.847656 215.753906 L 113.75 215.753906 L 113.558594 215.75 C 113.042969 215.742188 112.53125 215.734375 112.015625 215.726562 C 111.507812 215.722656 111.003906 215.714844 110.496094 215.707031 C 110.027344 215.714844 109.5625 215.71875 109.09375 215.722656 C 107.238281 215.730469 105.351562 215.871094 103.566406 216.054688 C 101.78125 216.28125 100.050781 216.585938 98.316406 217.003906 C 96.578125 217.421875 94.824219 217.925781 93.027344 218.433594 C 91.222656 218.929688 89.417969 219.429688 87.617188 219.808594 C 84.011719 220.59375 80.578125 221.078125 77.257812 221.429688 C 75.644531 221.558594 74.109375 221.714844 72.546875 221.816406 C 70.992188 221.925781 69.484375 222.03125 68.015625 222.066406 C 65.085938 222.148438 62.296875 222.136719 59.722656 221.828125 C 57.136719 221.53125 54.863281 220.992188 52.871094 220.546875 C 48.886719 219.65625 45.695312 219.214844 43.5 218.957031 C 41.300781 218.71875 40.128906 218.589844 40.128906 218.589844 C 40.128906 218.589844 40.421875 218.5625 40.992188 218.515625 C 41.5625 218.472656 42.410156 218.386719 43.519531 218.316406 C 45.726562 218.214844 49.015625 218.03125 53.183594 218.332031 C 55.265625 218.457031 57.496094 218.671875 59.871094 218.597656 C 62.253906 218.53125 64.839844 218.238281 67.613281 217.789062 C 69.003906 217.566406 70.429688 217.308594 71.894531 217.035156 C 73.359375 216.761719 74.917969 216.421875 76.488281 216.109375 C 79.519531 215.449219 82.738281 214.675781 85.945312 213.617188 C 87.558594 213.101562 89.1875 212.507812 90.878906 211.875 C 92.566406 211.234375 94.359375 210.542969 96.269531 209.898438 C 98.191406 209.242188 100.25 208.734375 102.332031 208.304688 C 104.433594 207.925781 106.515625 207.613281 108.695312 207.441406 C 109.242188 207.394531 109.785156 207.347656 110.335938 207.300781 C 110.863281 207.265625 111.359375 207.25 111.875 207.222656 C 112.386719 207.199219 112.902344 207.175781 113.417969 207.152344 L 113.609375 207.144531 L 113.878906 207.136719 L 114.292969 207.128906 L 115.117188 207.113281 C 117.335938 207.09375 119.621094 207.175781 121.957031 207.441406 C 124.296875 207.710938 126.699219 208.195312 129.011719 208.890625 C 131.324219 209.574219 133.507812 210.433594 135.472656 211.140625 C 137.449219 211.855469 139.28125 212.40625 141.179688 212.800781 C 143.070312 213.195312 145.042969 213.417969 147.09375 213.507812 C 147.609375 213.539062 148.101562 213.542969 148.59375 213.554688 C 149.054688 213.570312 149.675781 213.558594 150.234375 213.558594 L 150.664062 213.558594 L 150.996094 213.542969 L 151.785156 213.519531 C 152.316406 213.511719 152.828125 213.464844 153.351562 213.441406 C 155.433594 213.328125 157.445312 213.0625 159.390625 212.648438 C 161.339844 212.21875 163.1875 211.628906 165.210938 210.820312 C 167.222656 210.023438 169.503906 209.039062 172.03125 208.21875 C 174.550781 207.394531 177.230469 206.789062 179.851562 206.449219 C 181.164062 206.265625 182.464844 206.164062 183.761719 206.078125 C 184.414062 206.039062 185.09375 206.019531 185.757812 205.988281 L 187.601562 205.964844 C 190.136719 205.980469 192.730469 206.125 195.359375 206.480469 C 197.980469 206.835938 200.65625 207.457031 203.171875 208.289062 C 205.6875 209.113281 207.945312 210.109375 209.945312 210.894531 C 211.957031 211.6875 213.808594 212.277344 215.761719 212.691406 C 216.734375 212.902344 217.730469 213.054688 218.734375 213.191406 C 219.742188 213.308594 220.792969 213.402344 221.792969 213.460938 C 222.292969 213.488281 222.765625 213.527344 223.371094 213.535156 L 224.226562 213.5625 L 224.332031 213.566406 C 224.429688 213.566406 224.324219 213.566406 224.371094 213.566406 L 224.570312 213.570312 L 224.960938 213.570312 C 225.488281 213.574219 226.015625 213.582031 226.53125 213.566406 C 227.050781 213.558594 227.570312 213.542969 228.074219 213.511719 C 230.121094 213.417969 232.085938 213.175781 233.980469 212.777344 C 235.875 212.371094 237.710938 211.820312 239.699219 211.089844 C 241.679688 210.375 243.863281 209.515625 246.191406 208.84375 C 248.507812 208.152344 250.917969 207.695312 253.25 207.433594 C 254.417969 207.3125 255.574219 207.21875 256.710938 207.175781 C 257.277344 207.152344 257.84375 207.132812 258.429688 207.128906 L 259.296875 207.121094 C 259.589844 207.117188 259.828125 207.128906 260.09375 207.132812 C 262.277344 207.164062 264.476562 207.277344 266.65625 207.554688 C 268.832031 207.824219 271 208.234375 273.097656 208.8125 C 275.191406 209.390625 277.199219 210.128906 279.019531 210.925781 C 280.847656 211.71875 282.5 212.496094 284.085938 213.140625 C 285.671875 213.792969 287.21875 214.300781 288.78125 214.726562 C 290.34375 215.140625 291.921875 215.4375 293.5 215.652344 C 294.289062 215.753906 295.074219 215.847656 295.835938 215.910156 C 296.558594 215.988281 297.488281 216.027344 298.195312 216.082031 C 301.339844 216.257812 304.308594 216.28125 307.105469 216.191406 C 309.910156 216.113281 312.535156 215.835938 315.0625 215.671875 C 317.585938 215.492188 319.976562 215.476562 322.089844 215.675781 C 323.144531 215.792969 324.140625 215.894531 325.0625 216.066406 C 325.523438 216.140625 325.96875 216.21875 326.398438 216.300781 C 326.824219 216.394531 327.238281 216.488281 327.632812 216.578125 C 328.027344 216.664062 328.410156 216.746094 328.773438 216.832031 C 329.136719 216.925781 329.488281 217.015625 329.816406 217.105469 C 330.480469 217.277344 331.078125 217.4375 331.617188 217.582031 C 332.675781 217.894531 333.484375 218.160156 334.035156 218.332031 C 334.578125 218.5 334.859375 218.589844 334.859375 218.589844 " fill-opacity="1" fill-rule="nonzero"/><g clip-path="url(#7f7334acaf)"><path fill="#ffffff" d="M 76.148438 186.484375 L 77.054688 186.476562 C 76.894531 186.472656 77.070312 186.472656 77.0625 186.472656 L 77.171875 186.464844 L 77.382812 186.453125 L 77.808594 186.425781 C 78.949219 186.355469 80.105469 186.320312 81.222656 186.160156 C 83.503906 185.945312 85.699219 185.488281 87.867188 184.835938 C 89.105469 184.464844 90.332031 184.007812 91.613281 183.488281 C 91.386719 180.78125 91.261719 178.042969 91.261719 175.273438 C 91.261719 122.125 134.347656 79.042969 187.496094 79.042969 C 240.640625 79.042969 283.726562 122.125 283.726562 175.273438 C 283.726562 178.046875 283.605469 180.789062 283.375 183.503906 C 284.65625 184.023438 285.882812 184.484375 287.117188 184.851562 L 287.929688 185.101562 C 288.203125 185.179688 288.476562 185.238281 288.75 185.304688 C 289.300781 185.425781 289.835938 185.589844 290.398438 185.679688 C 290.957031 185.773438 291.511719 185.875 292.070312 185.96875 C 292.621094 186.070312 293.164062 186.101562 293.707031 186.175781 L 294.523438 186.269531 C 294.664062 186.285156 294.789062 186.308594 294.9375 186.316406 L 295.394531 186.339844 C 296.007812 186.375 296.617188 186.410156 297.226562 186.441406 L 297.679688 186.464844 L 298.019531 186.488281 C 298.011719 186.488281 298.195312 186.492188 298.03125 186.488281 L 298.886719 186.5 C 299.21875 186.503906 299.554688 186.507812 299.886719 186.511719 C 300.253906 182.816406 300.445312 179.066406 300.445312 175.273438 C 300.445312 112.894531 249.875 62.324219 187.496094 62.324219 C 125.117188 62.324219 74.546875 112.894531 74.546875 175.273438 C 74.546875 179.058594 74.734375 182.800781 75.097656 186.496094 C 75.449219 186.488281 75.796875 186.488281 76.148438 186.484375 " fill-opacity="1" fill-rule="nonzero"/></g><g clip-path="url(#c03decf28d)"><path fill="#ffffff" d="M 270.574219 244.011719 C 269.457031 243.851562 268.289062 243.792969 267.105469 243.707031 C 266.519531 243.691406 265.929688 243.699219 265.335938 243.691406 C 265.039062 243.683594 264.742188 243.683594 264.441406 243.679688 C 264.132812 243.683594 263.789062 243.703125 263.457031 243.714844 C 262.792969 243.742188 262.121094 243.765625 261.441406 243.792969 L 261.183594 243.800781 L 261.121094 243.800781 C 261.019531 243.800781 261.183594 243.808594 261.148438 243.808594 L 261.027344 243.816406 L 260.542969 243.863281 C 260.21875 243.890625 259.894531 243.917969 259.566406 243.949219 C 258.25 244.027344 256.960938 244.242188 255.644531 244.429688 C 255.121094 244.523438 254.601562 244.625 254.085938 244.734375 C 236.796875 261.3125 213.339844 271.507812 187.496094 271.507812 C 161.644531 271.507812 138.179688 261.304688 120.890625 244.722656 C 120.378906 244.617188 119.863281 244.515625 119.355469 244.414062 C 118.71875 244.320312 118.085938 244.226562 117.460938 244.136719 L 116.992188 244.066406 L 116.46875 244.019531 C 116.121094 243.992188 115.773438 243.960938 115.425781 243.933594 C 115.082031 243.902344 114.738281 243.875 114.394531 243.847656 L 113.886719 243.804688 L 113.757812 243.792969 C 113.65625 243.789062 113.820312 243.789062 113.78125 243.789062 L 113.722656 243.785156 L 113.480469 243.777344 C 112.835938 243.753906 112.199219 243.726562 111.570312 243.699219 C 106.796875 243.496094 102.613281 244.085938 98.769531 245.160156 C 119.453125 271.382812 151.503906 288.222656 187.496094 288.222656 C 223.480469 288.222656 255.527344 271.390625 276.210938 245.171875 C 274.410156 244.671875 272.554688 244.253906 270.574219 244.011719 " fill-opacity="1" fill-rule="nonzero"/></g><path fill="#ffffff" d="M 197.558594 140.507812 C 197.558594 130.351562 191.320312 122.113281 183.621094 122.113281 C 175.921875 122.113281 169.679688 130.351562 169.679688 140.507812 C 169.679688 150.667969 175.921875 158.902344 183.621094 158.902344 C 191.320312 158.902344 197.558594 150.667969 197.558594 140.507812 " fill-opacity="1" fill-rule="nonzero"/><g clip-path="url(#f80ab31bc0)"><path fill="#ffffff" d="M 334.046875 112.433594 C 334.046875 112.433594 310.425781 85.328125 254.859375 120.953125 C 199.289062 156.578125 201.617188 134.894531 201.617188 134.894531 C 201.617188 134.894531 195.347656 163.359375 233.949219 141.476562 C 233.949219 141.476562 219.039062 156.964844 196.386719 163.9375 C 196.386719 163.9375 229.109375 162.195312 247.113281 139.347656 C 265.121094 116.5 289.320312 110.691406 314.878906 121.144531 C 314.878906 121.144531 314.105469 116.113281 303.84375 111.46875 C 303.84375 111.46875 322.042969 106.625 334.046875 112.433594 " fill-opacity="1" fill-rule="nonzero"/></g><g clip-path="url(#a2f95a790b)"><path fill="#ffffff" d="M 233.46875 157.261719 C 228.945312 160.324219 223.867188 162.246094 218.542969 162.96875 L 214.503906 163.285156 C 213.023438 163.382812 211.542969 163.417969 210.0625 163.574219 C 208.582031 163.792969 207.105469 163.882812 205.640625 164.21875 L 203.441406 164.664062 L 201.28125 165.269531 C 198.402344 166.113281 195.601562 167.285156 193.050781 168.890625 C 190.566406 170.539062 188.148438 172.5625 186.921875 175.277344 C 188.964844 173.203125 191.507812 171.914062 194.085938 170.910156 C 196.664062 169.890625 199.382812 169.273438 202.101562 168.789062 C 204.828125 168.3125 207.613281 168.125 210.382812 167.960938 L 214.570312 167.867188 C 216.070312 167.785156 217.625 167.695312 219.140625 167.574219 C 225.238281 166.773438 231.160156 164.160156 235.703125 160.121094 C 240.246094 156.097656 243.648438 150.902344 245.15625 145.238281 C 241.902344 150.058594 237.949219 154.140625 233.46875 157.261719 " fill-opacity="1" fill-rule="nonzero"/></g><g clip-path="url(#7dd18e0691)"><path fill="#ffffff" d="M 170.855469 163.9375 C 148.203125 156.964844 133.292969 141.476562 133.292969 141.476562 C 171.894531 163.359375 165.628906 134.894531 165.628906 134.894531 C 165.628906 134.894531 167.953125 156.578125 112.382812 120.953125 C 56.816406 85.328125 33.195312 112.433594 33.195312 112.433594 C 45.199219 106.625 63.398438 111.46875 63.398438 111.46875 C 53.136719 116.113281 52.363281 121.144531 52.363281 121.144531 C 77.921875 110.691406 102.121094 116.5 120.128906 139.347656 C 138.132812 162.195312 170.855469 163.9375 170.855469 163.9375 " fill-opacity="1" fill-rule="nonzero"/></g><g clip-path="url(#0c361e1804)"><path fill="#ffffff" d="M 174.191406 168.890625 C 171.640625 167.285156 168.839844 166.113281 165.964844 165.269531 L 163.800781 164.664062 L 161.605469 164.21875 C 160.140625 163.882812 158.660156 163.792969 157.179688 163.574219 C 155.703125 163.417969 154.222656 163.382812 152.738281 163.285156 L 148.699219 162.96875 C 143.378906 162.246094 138.296875 160.324219 133.773438 157.261719 C 129.292969 154.140625 125.339844 150.058594 122.085938 145.238281 C 123.59375 150.902344 126.996094 156.097656 131.539062 160.121094 C 136.082031 164.160156 142.007812 166.773438 148.101562 167.574219 C 149.621094 167.695312 151.175781 167.785156 152.671875 167.867188 L 156.859375 167.960938 C 159.632812 168.125 162.414062 168.3125 165.144531 168.789062 C 167.859375 169.273438 170.578125 169.890625 173.15625 170.910156 C 175.734375 171.914062 178.277344 173.203125 180.316406 175.277344 C 179.09375 172.5625 176.675781 170.539062 174.191406 168.890625 " fill-opacity="1" fill-rule="nonzero"/></g></svg>